/* XPM */
static char * bio7_xpm[] = {
"32 32 256 2",
"  	c None",
". 	c #507435",
"+ 	c #537738",
"@ 	c #567A3B",
"# 	c #587D3D",
"$ 	c #5D7F3A",
"% 	c #568241",
"& 	c #617E40",
"* 	c #5A843D",
"= 	c #5E8343",
"- 	c #5C853E",
"; 	c #62843E",
"> 	c #5F8841",
", 	c #658741",
"' 	c #608A43",
") 	c #68883C",
"! 	c #628C44",
"~ 	c #658D3F",
"{ 	c #638D45",
"] 	c #688B44",
"^ 	c #668E40",
"/ 	c #698C45",
"( 	c #678F41",
"_ 	c #708B46",
": 	c #699143",
"< 	c #6D8F49",
"[ 	c #6A9244",
"} 	c #68924A",
"| 	c #6B9345",
"1 	c #70934C",
"2 	c #699848",
"3 	c #709641",
"4 	c #6E9648",
"5 	c #719742",
"6 	c #769541",
"7 	c #73954E",
"8 	c #729843",
"9 	c #6E9850",
"0 	c #749A45",
"a 	c #77984A",
"b 	c #739B4C",
"c 	c #719B53",
"d 	c #769952",
"e 	c #719E48",
"f 	c #769C47",
"g 	c #799D41",
"h 	c #7C9B47",
"i 	c #76A144",
"j 	c #7C9C4F",
"k 	c #799F49",
"l 	c #779F50",
"m 	c #7BA044",
"n 	c #7D9E50",
"o 	c #78A446",
"p 	c #809F4B",
"q 	c #7D9F58",
"r 	c #7EA246",
"s 	c #7FA052",
"t 	c #7AA548",
"u 	c #7DA34E",
"v 	c #80A448",
"w 	c #7CA454",
"x 	c #83A24E",
"y 	c #80A25B",
"z 	c #86A349",
"A 	c #84A34F",
"B 	c #82A355",
"C 	c #87A155",
"D 	c #7DA94B",
"E 	c #85A450",
"F 	c #83A84B",
"G 	c #89A356",
"H 	c #82A852",
"I 	c #88A753",
"J 	c #8AA84D",
"K 	c #84AA54",
"L 	c #8AA955",
"M 	c #86A960",
"N 	c #8DAA4F",
"O 	c #85AF4B",
"P 	c #89AA5B",
"Q 	c #88AD50",
"R 	c #81B24C",
"S 	c #87AD57",
"T 	c #8FA95C",
"U 	c #8DAC57",
"V 	c #8CAC5E",
"W 	c #89AF59",
"X 	c #8EAD58",
"Y 	c #8DB04C",
"Z 	c #90AE52",
"` 	c #92AB5E",
" .	c #89B34E",
"..	c #94AC59",
"+.	c #8BB15B",
"@.	c #90AF5A",
"#.	c #8EAF60",
"$.	c #87B749",
"%.	c #92B054",
"&.	c #91B05B",
"*.	c #92B15C",
"=.	c #89B94B",
"-.	c #8FB456",
";.	c #97AF5B",
">.	c #95AF61",
",.	c #8EB45E",
"'.	c #91B263",
").	c #92B551",
"!.	c #93B35D",
"~.	c #99B15D",
"{.	c #90B94C",
"].	c #95B45F",
"^.	c #8CBC4E",
"/.	c #98B264",
"(.	c #94B565",
"_.	c #8DBD4F",
":.	c #91B861",
"<.	c #9BB460",
"[.	c #97B661",
"}.	c #96B955",
"|.	c #94B95B",
"1.	c #9AB466",
"2.	c #94BC4F",
"3.	c #9DB561",
"4.	c #9EB662",
"5.	c #94BB64",
"6.	c #99B963",
"7.	c #96BE52",
"8.	c #9DB769",
"9.	c #92C153",
"0.	c #99BA6A",
"a.	c #94C24D",
"b.	c #A0B864",
"c.	c #9BBB65",
"d.	c #98C054",
"e.	c #9BBE5A",
"f.	c #A1B965",
"g.	c #9ABF61",
"h.	c #98BF67",
"i.	c #A0BD61",
"j.	c #9EBD67",
"k.	c #A3BB67",
"l.	c #9CC062",
"m.	c #98C650",
"n.	c #A2BC6D",
"o.	c #A4BC68",
"p.	c #A1BF62",
"q.	c #9BC16A",
"r.	c #9FC25D",
"s.	c #9EC264",
"t.	c #A1C06A",
"u.	c #A6BE69",
"v.	c #A4BE70",
"w.	c #9DC659",
"x.	c #9CC65F",
"y.	c #9FC466",
"z.	c #A8C06B",
"A.	c #A6C071",
"B.	c #9EC56D",
"C.	c #A3C561",
"D.	c #A3C36C",
"E.	c #ABBE71",
"F.	c #9DCB55",
"G.	c #A2C373",
"H.	c #A9C16C",
"I.	c #A7C172",
"J.	c #A2C768",
"K.	c #A8C274",
"L.	c #A5C56E",
"M.	c #A8C568",
"N.	c #AAC36E",
"O.	c #A7C670",
"P.	c #AAC475",
"Q.	c #A7C964",
"R.	c #A4CC5F",
"S.	c #ADC570",
"T.	c #A2D05A",
"U.	c #A9C872",
"V.	c #A6CB6C",
"W.	c #ACC677",
"X.	c #A9CC67",
"Y.	c #ACCA6C",
"Z.	c #AACA73",
"`.	c #A9CD6E",
" +	c #ACCB74",
".+	c #A5D35D",
"++	c #ABCE69",
"@+	c #B1C974",
"#+	c #ACCF6A",
"$+	c #B0CA7A",
"%+	c #ABCF70",
"&+	c #AFCD70",
"*+	c #AECD76",
"=+	c #ABD365",
"-+	c #A9D36C",
";+	c #AFCE77",
">+	c #A8D660",
",+	c #B1CF71",
"'+	c #B0CF78",
")+	c #B1D079",
"!+	c #AAD862",
"~+	c #B0D36D",
"{+	c #AFD661",
"]+	c #B4D174",
"^+	c #AFD474",
"/+	c #B2D27A",
"(+	c #AADA6A",
"_+	c #AFD869",
":+	c #B3D670",
"<+	c #B3D964",
"[+	c #AEDC65",
"}+	c #B5D47D",
"|+	c #B8D283",
"1+	c #B7D577",
"2+	c #B2DA6C",
"3+	c #B5D872",
"4+	c #B3D879",
"5+	c #B6D67E",
"6+	c #B0DE67",
"7+	c #BCD47E",
"8+	c #B8D77F",
"9+	c #B7DA74",
"0+	c #B6DD67",
"a+	c #B4DD6E",
"b+	c #B9D880",
"c+	c #BED680",
"d+	c #B9DB75",
"e+	c #B6DE70",
"f+	c #BAD981",
"g+	c #BDD787",
"h+	c #B5DF77",
"i+	c #BDDA7C",
"j+	c #BBDA82",
"k+	c #BADD76",
"l+	c #C0D881",
"m+	c #C1D982",
"n+	c #BCDC83",
"o+	c #C3DB84",
"p+	c #C4DC85",
"q+	c #C2DC8B",
"r+	c #C6DE87",
"s+	c #C4DE8D",
"t+	c #C1E188",
"u+	c #C5E08F",
"v+	c #C8E18A",
"w+	c #C6E190",
"x+	c #C9E28B",
"y+	c #C8E291",
"z+	c #C9E392",
"A+	c #CBE48D",
"B+	c #CAE493",
"C+	c #CDE58E",
"D+	c #CBE594",
"E+	c #CDE796",
"F+	c #CEE897",
"G+	c #D0EA99",
"                        (+!+!+[+[+[+[+                          ",
"                  T..+{+2+e+k+d+h+h+e+e+0+6+[+                  ",
"                R.=+h+k+9+k+4+l.].].g.^+d+h+e+[+                ",
"            m.R.=+3+3+i+&+'.c 7 } ' ' ! w Q.d+h+<+!+            ",
"          d.R.-+:+i+9+L.0.y d y V (.(.'.V l @.4+e+2+>+          ",
"        _.w.=+1+i+1+ +{ y B 0.'.b 0 g k f A K W :+2+2+.+        ",
"      {.x.Q.:+]+,+6.l { y | 3 A @+1.x E z z z h U ~+2+{+T.      ",
"       .x.#+,+y.g+q { ^ b 4 k A b.L u.H.v.v.L E r ].:+-+{+      ",
"    O }.M.,+D.)+L.n { ( h z z L ;.k.;.6.f...j.K.X p p.~+=+F.    ",
"  D  .e.X.J.g.q+M.C ^ 4 g x L %.&.t.4.4.n.G.<.&.[.c.w %+=+w.a.  ",
"  t  .p.M.B.L.s+'+P a 5 m L &.<.8.G.E.b.4.S.4.4.~...@.'.:+R.a.  ",
"  t ).s.@+&+*+j+8+0.s f x N ~.3.4.b.4.I.E.v.t.<.].&.J p X.R.d.  ",
"e t ).j.U./+7+q+g+8+T p E &.%.f.k.v.v.I.A.A.n.I.4.*.X j D.-+7.^.",
"0 k %.i.)+}+g+j+r+w+I.X U ;.4.f.n.t.E.E.E.N.n.4.$+;...p W Q.7.{.",
"2 u -.t.b+}+g+r+x+v+s+G.U P 3.f.E.u.N.S.E.P.A.f.1. +L z x C.}.$.",
"| e %.D.g+g+o+w+B+w+r+D+|+>.y C T v.E.E.E.S.E.0.~.N.&.I d J.2.O ",
"~ b N M.}+u+c+w+D+w+z+F+C+C+|+L.8.B ` f.E.u.E.<.].;.|.r j l. .O ",
"{ ( F t.8+q+g+r+C+w+B+G+G+z+D+D+v+7+(.` 8.v.4.~.*.N (.6 j e.O D ",
"^ } u c.b+g+q+s+z+x+E+G+G+x+B+A+x+p+|+*...].[.;.*.J I ) I |.D t ",
"{ ~ 0 @.8+j+g+|+v+w+D+G+D+y+C+B+w+g+f+)+V ;.;.J +.x h = &.Y t u ",
"  ~ | x }+f+r+g+s+r+D+F+y+z+A+x+t+c+7+}+0.#.U E Q m h / %.D e   ",
"  { ( p @+7+p+x+q+w+x+C+u+y+y+t+p+g+}+'+y.C I z H 4 $ C Q 0 e   ",
"  { ! 4 s g+g+o+q+s+s+x+r+s+s+q+j+|+%+*+B.j B L 0 ' $ N k | 2   ",
"    ~ ( 8 @.}+g+c+7+q+q+q+p+c+j+f+}+'+J.s.j B '., + s u | |     ",
"    { ^ } h L.@+g+@+7+7+g+|+7+5+^+;+B.p.s._ V P . h m [ ^ (     ",
"      { ~ ( 8  +]+/+;+*+/+/+|+;+*+B.O.y.5._ ].# a h [ ~ {       ",
"        { { { M @+ +;+)+'+V.Z. +M.|.B.l.1 G C h k [ { ~         ",
"          ^ ( { 1 G.)+)+Z.D.g.5.5.t.t.7 ; F r 0 ( { ~           ",
"            ~ ! ! % 7 %.B.L.L.D.h.X & & h 0 | { ~ {             ",
"              ^ ~ { ; # ; < 1 , & . ) 3 } ~ { ( {               ",
"                  { ! { ' - = * > ' ' ~ { ~ {                   ",
"                        { ~ ^ ! ! { ^ {                         "};
