<?xml version="1.0" encoding="UTF-8" standalone="no"?>
<!-- Created with Inkscape (http://www.inkscape.org/) -->

<svg
   xmlns:dc="http://purl.org/dc/elements/1.1/"
   xmlns:cc="http://creativecommons.org/ns#"
   xmlns:rdf="http://www.w3.org/1999/02/22-rdf-syntax-ns#"
   xmlns:svg="http://www.w3.org/2000/svg"
   xmlns="http://www.w3.org/2000/svg"
   xmlns:xlink="http://www.w3.org/1999/xlink"
   xmlns:sodipodi="http://sodipodi.sourceforge.net/DTD/sodipodi-0.dtd"
   xmlns:inkscape="http://www.inkscape.org/namespaces/inkscape"
   width="16"
   height="16"
   id="svg2"
   version="1.1"
   inkscape:version="0.91 r13725"
   sodipodi:docname="s3.svg"
   inkscape:export-filename="C:\Users\elk\git\EclipseREditorPlugin\com.eco.bio7.redit\icons\s3.png"
   inkscape:export-xdpi="90"
   inkscape:export-ydpi="90">
  <defs
     id="defs4">
    <linearGradient
       inkscape:collect="always"
       xlink:href="#linearGradient4902-3"
       id="linearGradient4908-2"
       x1="10.544736"
       y1="1038.5779"
       x2="10.544736"
       y2="1052.3228"
       gradientUnits="userSpaceOnUse"
       gradientTransform="matrix(1.0857388,0,0,1.1547586,-2.9536651,-162.80453)" />
    <linearGradient
       inkscape:collect="always"
       id="linearGradient4902-3">
      <stop
         style="stop-color:#b28a30;stop-opacity:1"
         offset="0"
         id="stop4904-2" />
      <stop
         style="stop-color:#7c703e;stop-opacity:1"
         offset="1"
         id="stop4906-2" />
    </linearGradient>
    <linearGradient
       inkscape:collect="always"
       xlink:href="#linearGradient4894-6"
       id="linearGradient4900-1"
       x1="7.9987183"
       y1="1042.2307"
       x2="9.9874563"
       y2="1040.3303"
       gradientUnits="userSpaceOnUse"
       gradientTransform="matrix(1.0857388,0,0,1.1547586,1.3892901,-162.80453)" />
    <linearGradient
       inkscape:collect="always"
       id="linearGradient4894-6">
      <stop
         style="stop-color:#e0c88f;stop-opacity:1"
         offset="0"
         id="stop4896-8" />
      <stop
         style="stop-color:#d5b269;stop-opacity:1"
         offset="1"
         id="stop4898-5" />
    </linearGradient>
    <linearGradient
       inkscape:collect="always"
       id="linearGradient4994-6">
      <stop
         style="stop-color:#f9fafc;stop-opacity:1;"
         offset="0"
         id="stop4996-1" />
      <stop
         style="stop-color:#dce7f7;stop-opacity:1"
         offset="1"
         id="stop4998-89" />
    </linearGradient>
    <linearGradient
       y2="1051.8378"
       x2="9.8946028"
       y1="1039.153"
       x1="9.8946028"
       gradientUnits="userSpaceOnUse"
       id="linearGradient4101"
       xlink:href="#linearGradient4994-6"
       inkscape:collect="always"
       gradientTransform="matrix(1.0857388,0,0,1.1547586,-2.9536651,-162.80453)" />
    <filter
       inkscape:collect="always"
       id="filter4875"
       x="-0.17896049"
       width="1.357921"
       y="-0.18105166"
       height="1.3621033">
      <feGaussianBlur
         inkscape:collect="always"
         stdDeviation="0.71366792"
         id="feGaussianBlur4877" />
    </filter>
    <mask
       maskUnits="userSpaceOnUse"
       id="mask4917">
      <path
         style="fill:#ffffff;stroke:#ffffff;stroke-width:1;stroke-linecap:butt;stroke-linejoin:miter;stroke-miterlimit:4;stroke-opacity:1;stroke-dashoffset:0;display:inline"
         d="m 3.5193795,1037.8597 7.0096695,0 3.062057,3.0066 0,9.9546 -10.0717265,0 z"
         id="path4919"
         inkscape:connector-curvature="0"
         sodipodi:nodetypes="cccccc" />
    </mask>
  </defs>
  <sodipodi:namedview
     id="base"
     pagecolor="#ffffff"
     bordercolor="#666666"
     borderopacity="1.0"
     inkscape:pageopacity="0.0"
     inkscape:pageshadow="2"
     inkscape:zoom="10.671875"
     inkscape:cx="43.487189"
     inkscape:cy="3.7459186"
     inkscape:document-units="px"
     inkscape:current-layer="layer1"
     showgrid="true"
     inkscape:window-width="1920"
     inkscape:window-height="1140"
     inkscape:window-x="-8"
     inkscape:window-y="-8"
     inkscape:window-maximized="1"
     showguides="true"
     inkscape:guide-bbox="true"
     inkscape:snap-global="false">
    <inkscape:grid
       type="xygrid"
       id="grid3999" />
  </sodipodi:namedview>
  <metadata
     id="metadata7">
    <rdf:RDF>
      <cc:Work
         rdf:about="">
        <dc:format>image/svg+xml</dc:format>
        <dc:type
           rdf:resource="http://purl.org/dc/dcmitype/StillImage" />
        <dc:title></dc:title>
      </cc:Work>
    </rdf:RDF>
  </metadata>
  <g
     inkscape:label="Layer 1"
     inkscape:groupmode="layer"
     id="layer1"
     style="display:inline"
     transform="translate(0,-1036.3622)">
    <g
       id="g4913"
       mask="url(#mask4917)">
      <g
         transform="translate(17.171238,-0.006311)"
         id="text3909-7-7-1-1"
         style="font-style:normal;font-variant:normal;font-weight:normal;font-stretch:normal;font-size:11.05178356px;line-height:125%;font-family:AustralianFlyingCorpsStencil;-inkscape-font-specification:AustralianFlyingCorpsStencil;text-align:start;letter-spacing:0px;word-spacing:0px;writing-mode:lr-tb;text-anchor:start;display:inline;opacity:0.75;fill:#ffffff;fill-opacity:1;stroke:#ffffff;stroke-width:1.5;stroke-miterlimit:4;stroke-dasharray:none;stroke-opacity:1;filter:url(#filter4875)">
        <path
           style="fill:#ffffff;stroke:#ffffff;stroke-width:1.5;stroke-miterlimit:4;stroke-dasharray:none"
           inkscape:connector-curvature="0"
           id="path4719-7"
           d="m -7.2191854,1043.532 c -9.8e-6,0.8694 -0.2357809,1.6504 -0.7073142,2.343 -0.5231262,0.7883 -1.2009683,1.1825 -2.0335281,1.1825 -0.3315603,0 -0.6115383,-0.085 -0.8399353,-0.2542 -0.250513,-0.1916 -0.379451,-0.4494 -0.386813,-0.7736 -0.397869,0.6778 -0.902567,1.0167 -1.514094,1.0167 -0.552593,0 -0.987296,-0.1694 -1.304111,-0.5083 -0.31682,-0.3463 -0.475229,-0.7995 -0.475226,-1.3594 -3e-6,-0.7736 0.279976,-1.4699 0.839935,-2.0888 0.559953,-0.6189 1.219376,-0.9283 1.97827,-0.9283 0.729411,0 1.123591,0.3094 1.18254,0.9283 l 0.24314,-0.8068 1.259903,0 c -0.2063077,0.6558 -0.4089236,1.3115 -0.6078481,1.9672 -0.2799856,0.9358 -0.4199749,1.5657 -0.4199679,1.8899 -7e-6,0.3389 0.1215627,0.5084 0.364709,0.5084 0.1105104,0 0.2615513,-0.059 0.4531231,-0.1769 1.0167553,-0.6262 1.5251368,-1.6025 1.5251461,-2.9287 -9.3e-6,-1.0241 -0.3462981,-1.8382 -1.0388676,-2.4424 -0.6631146,-0.5673 -1.5141016,-0.851 -2.5529616,-0.851 -1.304115,0 -2.379821,0.4605 -3.227121,1.3815 -0.817834,0.8915 -1.226749,1.9967 -1.226748,3.3155 -10e-7,1.201 0.372075,2.144 1.11623,2.8293 0.714679,0.6557 1.679867,0.9836 2.895567,0.9836 1.090437,0 2.232453,-0.3721 3.4260531,-1.1163 l 0.2431393,0.3537 c -1.0757148,0.8252 -2.2914094,1.2378 -3.6470884,1.2378 -1.473575,0 -2.674534,-0.361 -3.602882,-1.0831 -1.009397,-0.7957 -1.514094,-1.9119 -1.514094,-3.3487 0,-1.4514 0.545221,-2.6598 1.635664,-3.625 1.0536,-0.9357 2.313503,-1.4035 3.77971,-1.4035 1.200954,0 2.1808775,0.3205 2.9397744,0.9615 0.8104548,0.6926 1.2156864,1.6246 1.2156962,2.7961 m -3.6139336,-0.3537 c -6e-6,-0.361 -0.162098,-0.5415 -0.486278,-0.5415 -0.456812,0 -0.869412,0.4236 -1.2378,1.2709 -0.32419,0.7295 -0.486282,1.3594 -0.486278,1.8899 -4e-6,0.5084 0.198928,0.7626 0.596796,0.7626 0.397859,0 0.780987,-0.4716 1.149385,-1.4147 0.309444,-0.8104 0.464169,-1.4662 0.464175,-1.9672" />
      </g>
    </g>
    <path
       style="display:inline;fill:url(#linearGradient4101);fill-opacity:1;stroke:none"
       d="m 3.0149478,1036.8787 7.6106702,0 3.324594,3.4719 0,11.4951 -10.9352642,0 z"
       id="rect4001-3"
       inkscape:connector-curvature="0"
       sodipodi:nodetypes="cccccc" />
    <path
       style="display:inline;fill:url(#linearGradient4900-1);fill-opacity:1;stroke:none"
       d="m 10.049817,1036.3444 0,4.5165 4.318502,0 z"
       id="path4884"
       inkscape:connector-curvature="0" />
    <path
       style="display:inline;fill:none;stroke:url(#linearGradient4908-2);stroke-width:1.119717;stroke-linecap:butt;stroke-linejoin:miter;stroke-miterlimit:4;stroke-dashoffset:0;stroke-opacity:1"
       d="m 3.0149478,1036.8787 7.6106702,0 3.324594,3.4719 0,11.4951 -10.9352642,0 z"
       id="rect4001"
       inkscape:connector-curvature="0"
       sodipodi:nodetypes="cccccc" />
    <text
       xml:space="preserve"
       style="font-style:normal;font-weight:normal;font-size:15.58034706px;line-height:125%;font-family:sans-serif;letter-spacing:0px;word-spacing:0px;fill:#005597;fill-opacity:1;stroke:none;stroke-width:1px;stroke-linecap:butt;stroke-linejoin:miter;stroke-opacity:1"
       x="0.86212248"
       y="1121.0308"
       id="text239779"
       sodipodi:linespacing="125%"
       transform="scale(1.0686605,0.93575092)"><tspan
         sodipodi:role="line"
         id="tspan239781"
         x="0.86212248"
         y="1121.0308">$</tspan></text>
  </g>
</svg>
